<?xml version="1.0" encoding="UTF-8" standalone="no"?>
<svg
   xmlns:dc="http://purl.org/dc/elements/1.1/"
   xmlns:cc="http://creativecommons.org/ns#"
   xmlns:rdf="http://www.w3.org/1999/02/22-rdf-syntax-ns#"
   xmlns:svg="http://www.w3.org/2000/svg"
   xmlns="http://www.w3.org/2000/svg"
   xmlns:xlink="http://www.w3.org/1999/xlink"
   xmlns:sodipodi="http://sodipodi.sourceforge.net/DTD/sodipodi-0.dtd"
   xmlns:inkscape="http://www.inkscape.org/namespaces/inkscape"
   version="1.1"
   id="svg2"
   viewBox="0 0 8202.0206 5800.0002"
   height="163.68889cm"
   width="231.47925cm"
   inkscape:version="0.91 r13725"
   sodipodi:docname="cutting.svg">
  <sodipodi:namedview
     pagecolor="#ffffff"
     bordercolor="#666666"
     borderopacity="1"
     objecttolerance="10"
     gridtolerance="10"
     guidetolerance="10"
     inkscape:pageopacity="0"
     inkscape:pageshadow="2"
     inkscape:window-width="1920"
     inkscape:window-height="1016"
     id="namedview4345"
     showgrid="false"
     units="mm"
     inkscape:zoom="0.096910284"
     inkscape:cx="4890.249"
     inkscape:cy="3006.1414"
     inkscape:window-x="0"
     inkscape:window-y="27"
     inkscape:window-maximized="1"
     inkscape:current-layer="layer1"
     inkscape:snap-bbox="true"
     inkscape:bbox-nodes="true"
     inkscape:snap-page="true"
     fit-margin-top="0"
     fit-margin-left="0"
     fit-margin-right="0"
     fit-margin-bottom="0"
     inkscape:object-nodes="true"
     inkscape:snap-intersection-paths="true"
     inkscape:snap-smooth-nodes="true" />
  <defs
     id="defs4">
    <inkscape:perspective
       sodipodi:type="inkscape:persp3d"
       inkscape:vp_x="0 : 2900 : 1"
       inkscape:vp_y="0 : 1000 : 0"
       inkscape:vp_z="8202.0205 : 2900 : 1"
       inkscape:persp3d-origin="4101.0103 : 1933.3333 : 1"
       id="perspective3042" />
    <linearGradient
       id="linearGradient4658">
      <stop
         id="stop4660"
         offset="0"
         style="stop-color:#f9f9f9;stop-opacity:1" />
      <stop
         id="stop4662"
         offset="1"
         style="stop-color:#ffffff;stop-opacity:1" />
    </linearGradient>
    <filter
       height="1.3025489"
       y="-0.15127444"
       width="1.0748425"
       x="-0.037421186"
       id="filter4223"
       style="color-interpolation-filters:sRGB">
      <feGaussianBlur
         id="feGaussianBlur4225"
         stdDeviation="87.245405" />
    </filter>
    <linearGradient
       gradientUnits="userSpaceOnUse"
       y2="616.7345"
       x2="4327.4082"
       y1="-2748.6533"
       x1="2384.4009"
       id="linearGradient4666"
       xlink:href="#linearGradient4658" />
  </defs>
  <metadata
     id="metadata7">
    <rdf:RDF>
      <cc:Work
         rdf:about="">
        <dc:format>image/svg+xml</dc:format>
        <dc:type
           rdf:resource="http://purl.org/dc/dcmitype/StillImage" />
        <dc:title />
      </cc:Work>
    </rdf:RDF>
  </metadata>
  <g
     transform="translate(0,4747.6372)"
     id="layer1">
    <path
       style="color:#000000;display:inline;overflow:visible;visibility:visible;fill:none;stroke:#000000;stroke-width:7.51200008;stroke-linejoin:miter;stroke-miterlimit:4.5999999;stroke-dasharray:none;stroke-opacity:1;marker:none;enable-background:accumulate"
       d="m 2903.7559,503.75586 0,4792.48824 4792.4882,0 0,-4792.48824 z M 4103.75,1703.75 l 2392.5,0 0,1196.25 0,1196.25 -1196.25,0 -1196.25,0 z"
       id="rect3043"
       transform="translate(0,-4747.6372)"
       inkscape:connector-curvature="0"
       sodipodi:nodetypes="cccccccccccc" />
    <path
       style="fill:none;fill-rule:evenodd;stroke:#000000;stroke-width:7.51200008;stroke-linecap:butt;stroke-linejoin:miter;stroke-miterlimit:4;stroke-dashoffset:0;stroke-opacity:1"
       d="m 4043.6545,-3043.8872 -30.0474,0 m -90.144,0 -30.0472,0 m -90.1434,0 -30.0487,0 m -90.1428,0 -30.0488,0 m -90.1424,0 -30.0484,0 m -90.1448,0 -30.048,0 m -90.1449,0 -30.0491,0 m -90.1434,0 -30.048,0 m -90.1437,0 -30.0483,0 m -90.1454,0 -30.0474,0"
       id="path7070"
       inkscape:connector-curvature="0"
       sodipodi:nodetypes="cccccccccccccccccccc" />
    <path
       inkscape:connector-curvature="0"
       id="path7098"
       d="m 4043.6545,-1847.6372 -30.0474,0 m -90.144,0 -30.0472,0 m -90.1434,0 -30.0487,0 m -90.1428,0 -30.0488,0 m -90.1424,0 -30.0484,0 m -90.1448,0 -30.048,0 m -90.1449,0 -30.0491,0 m -90.1434,0 -30.048,0 m -90.1437,0 -30.0483,0 m -90.1454,0 -30.0474,0"
       style="fill:none;fill-rule:evenodd;stroke:#000000;stroke-width:7.51200008;stroke-linecap:butt;stroke-linejoin:miter;stroke-miterlimit:4;stroke-dashoffset:0;stroke-opacity:1"
       sodipodi:nodetypes="cccccccccccccccccccc" />
    <path
       style="fill:none;fill-rule:evenodd;stroke:#000000;stroke-width:7.51200008;stroke-linecap:butt;stroke-linejoin:miter;stroke-miterlimit:4;stroke-dashoffset:0;stroke-opacity:1"
       d="m 4043.6545,-651.3872 -30.0474,0 m -90.144,0 -30.0472,0 m -90.1434,0 -30.0487,0 m -90.1428,0 -30.0488,0 m -90.1424,0 -30.0484,0 m -90.1448,0 -30.048,0 m -90.1449,0 -30.0491,0 m -90.1434,0 -30.048,0 m -90.1437,0 -30.0483,0 m -90.1454,0 -30.0474,0"
       id="path7100"
       inkscape:connector-curvature="0"
       sodipodi:nodetypes="cccccccccccccccccccc" />
    <path
       inkscape:connector-curvature="0"
       id="path7102"
       d="m 7636.1486,-3043.8872 -30.0474,0 m -90.144,0 -30.0472,0 m -90.1434,0 -30.0487,0 m -90.1428,0 -30.0488,0 m -90.1424,0 -30.0484,0 m -90.1448,0 -30.048,0 m -90.1449,0 -30.0491,0 m -90.1434,0 -30.048,0 m -90.1437,0 -30.0483,0 m -90.1454,0 -30.0474,0"
       style="fill:none;fill-rule:evenodd;stroke:#000000;stroke-width:7.51200008;stroke-linecap:butt;stroke-linejoin:miter;stroke-miterlimit:4;stroke-dashoffset:0;stroke-opacity:1"
       sodipodi:nodetypes="cccccccccccccccccccc" />
    <path
       style="fill:none;fill-rule:evenodd;stroke:#000000;stroke-width:7.51200008;stroke-linecap:butt;stroke-linejoin:miter;stroke-miterlimit:4;stroke-dashoffset:0;stroke-opacity:1"
       d="m 7636.1486,-1847.6372 -30.0474,0 m -90.144,0 -30.0472,0 m -90.1434,0 -30.0487,0 m -90.1428,0 -30.0488,0 m -90.1424,0 -30.0484,0 m -90.1448,0 -30.048,0 m -90.1449,0 -30.0491,0 m -90.1434,0 -30.048,0 m -90.1437,0 -30.0483,0 m -90.1454,0 -30.0474,0"
       id="path7104"
       inkscape:connector-curvature="0"
       sodipodi:nodetypes="cccccccccccccccccccc" />
    <path
       inkscape:connector-curvature="0"
       id="path7106"
       d="m 7636.1486,-651.3872 -30.0474,0 m -90.144,0 -30.0472,0 m -90.1434,0 -30.0487,0 m -90.1428,0 -30.0488,0 m -90.1424,0 -30.0484,0 m -90.1448,0 -30.048,0 m -90.1449,0 -30.0491,0 m -90.1434,0 -30.048,0 m -90.1437,0 -30.0483,0 m -90.1454,0 -30.0474,0"
       style="fill:none;fill-rule:evenodd;stroke:#000000;stroke-width:7.51200008;stroke-linecap:butt;stroke-linejoin:miter;stroke-miterlimit:4;stroke-dashoffset:0;stroke-opacity:1"
       sodipodi:nodetypes="cccccccccccccccccccc" />
    <path
       inkscape:connector-curvature="0"
       id="path7114"
       d="m 4103.75,-3103.9827 0,-30.0474 m 0,-90.144 0,-30.0472 m 0,-90.1434 0,-30.0487 m 0,-90.1428 0,-30.0488 m 0,-90.1424 0,-30.0484 m 0,-90.1448 0,-30.048 m 0,-90.1449 0,-30.0491 m 0,-90.1434 0,-30.048 m 0,-90.1437 0,-30.0483 m 0,-90.1454 0,-30.0474"
       style="fill:none;fill-rule:evenodd;stroke:#000000;stroke-width:7.51200008;stroke-linecap:butt;stroke-linejoin:miter;stroke-miterlimit:4;stroke-dashoffset:0;stroke-opacity:1"
       sodipodi:nodetypes="cccccccccccccccccccc" />
    <path
       style="fill:none;fill-rule:evenodd;stroke:#000000;stroke-width:7.51200008;stroke-linecap:butt;stroke-linejoin:miter;stroke-miterlimit:4;stroke-dashoffset:0;stroke-opacity:1"
       d="m 5300,-3103.9827 0,-30.0474 m 0,-90.144 0,-30.0472 m 0,-90.1434 0,-30.0487 m 0,-90.1428 0,-30.0488 m 0,-90.1424 0,-30.0484 m 0,-90.1448 0,-30.048 m 0,-90.1449 0,-30.0491 m 0,-90.1434 0,-30.048 m 0,-90.1437 0,-30.0483 m 0,-90.1454 0,-30.0474"
       id="path7163"
       inkscape:connector-curvature="0"
       sodipodi:nodetypes="cccccccccccccccccccc" />
    <path
       inkscape:connector-curvature="0"
       id="path7165"
       d="m 6496.25,-3103.9827 0,-30.0474 m 0,-90.144 0,-30.0472 m 0,-90.1434 0,-30.0487 m 0,-90.1428 0,-30.0488 m 0,-90.1424 0,-30.0484 m 0,-90.1448 0,-30.048 m 0,-90.1449 0,-30.0491 m 0,-90.1434 0,-30.048 m 0,-90.1437 0,-30.0483 m 0,-90.1454 0,-30.0474"
       style="fill:none;fill-rule:evenodd;stroke:#000000;stroke-width:7.51200008;stroke-linecap:butt;stroke-linejoin:miter;stroke-miterlimit:4;stroke-dashoffset:0;stroke-opacity:1"
       sodipodi:nodetypes="cccccccccccccccccccc" />
    <path
       style="fill:none;fill-rule:evenodd;stroke:#000000;stroke-width:7.51200008;stroke-linecap:butt;stroke-linejoin:miter;stroke-miterlimit:4;stroke-dashoffset:0;stroke-opacity:1"
       d="m 4103.75,488.51143 0,-30.04744 m 0,-90.14399 0,-30.04715 m 0,-90.14347 0,-30.04863 m 0,-90.14286 0,-30.04875 m 0,-90.142454 0,-30.048415 m 0,-90.144821 0,-30.04792 m 0,-90.14488 0,-30.04911 m 0,-90.14343 0,-30.04804 m 0,-90.14366 0,-30.0483 m 0,-90.14541 0,-30.04738"
       id="path7167"
       inkscape:connector-curvature="0"
       sodipodi:nodetypes="cccccccccccccccccccc" />
    <path
       inkscape:connector-curvature="0"
       id="path7169"
       d="m 5300,488.5114 0,-30.0474 m 0,-90.144 0,-30.0472 m 0,-90.1434 0,-30.0487 m 0,-90.1428 0,-30.0488 m 0,-90.1424 0,-30.0484 m 0,-90.1448 0,-30.048 m 0,-90.1449 0,-30.0491 m 0,-90.1434 0,-30.048 m 0,-90.1437 0,-30.0483 m 0,-90.1454 0,-30.0474"
       style="fill:none;fill-rule:evenodd;stroke:#000000;stroke-width:7.51200008;stroke-linecap:butt;stroke-linejoin:miter;stroke-miterlimit:4;stroke-dashoffset:0;stroke-opacity:1"
       sodipodi:nodetypes="cccccccccccccccccccc" />
    <path
       style="fill:none;fill-rule:evenodd;stroke:#000000;stroke-width:7.51200008;stroke-linecap:butt;stroke-linejoin:miter;stroke-miterlimit:4;stroke-dashoffset:0;stroke-opacity:1"
       d="m 6496.25,488.5114 0,-30.0474 m 0,-90.144 0,-30.0472 m 0,-90.1434 0,-30.0487 m 0,-90.1428 0,-30.0488 m 0,-90.1424 0,-30.0484 m 0,-90.1448 0,-30.048 m 0,-90.1449 0,-30.0491 m 0,-90.1434 0,-30.048 m 0,-90.1437 0,-30.0483 m 0,-90.1454 0,-30.0474"
       id="path7171"
       inkscape:connector-curvature="0"
       sodipodi:nodetypes="cccccccccccccccccccc" />
  </g>
</svg>
