<?xml version="1.0" encoding="UTF-8" standalone="no"?>
<svg
   xmlns:dc="http://purl.org/dc/elements/1.1/"
   xmlns:cc="http://creativecommons.org/ns#"
   xmlns:rdf="http://www.w3.org/1999/02/22-rdf-syntax-ns#"
   xmlns:svg="http://www.w3.org/2000/svg"
   xmlns="http://www.w3.org/2000/svg"
   xmlns:xlink="http://www.w3.org/1999/xlink"
   xmlns:sodipodi="http://sodipodi.sourceforge.net/DTD/sodipodi-0.dtd"
   xmlns:inkscape="http://www.inkscape.org/namespaces/inkscape"
   version="1.1"
   id="svg2"
   viewBox="0 0 8202.0206 5800.0002"
   height="163.68889cm"
   width="231.47925cm"
   inkscape:version="0.48.4 r9939"
   sodipodi:docname="patron_p1.svg">
  <sodipodi:namedview
     pagecolor="#ffffff"
     bordercolor="#666666"
     borderopacity="1"
     objecttolerance="10"
     gridtolerance="10"
     guidetolerance="10"
     inkscape:pageopacity="0"
     inkscape:pageshadow="2"
     inkscape:window-width="1280"
     inkscape:window-height="800"
     id="namedview4345"
     showgrid="false"
     units="mm"
     inkscape:zoom="0.094976597"
     inkscape:cx="5641.6257"
     inkscape:cy="2900"
     inkscape:window-x="0"
     inkscape:window-y="0"
     inkscape:window-maximized="0"
     inkscape:current-layer="g3876"
     inkscape:snap-bbox="true"
     inkscape:bbox-nodes="true"
     inkscape:snap-page="true"
     fit-margin-top="0"
     fit-margin-left="0"
     fit-margin-right="0"
     fit-margin-bottom="0" />
  <defs
     id="defs4">
    <inkscape:perspective
       sodipodi:type="inkscape:persp3d"
       inkscape:vp_x="0 : 2900 : 1"
       inkscape:vp_y="0 : 1000 : 0"
       inkscape:vp_z="8202.0205 : 2900 : 1"
       inkscape:persp3d-origin="4101.0103 : 1933.3333 : 1"
       id="perspective3042" />
    <linearGradient
       id="linearGradient4658">
      <stop
         id="stop4660"
         offset="0"
         style="stop-color:#f9f9f9;stop-opacity:1" />
      <stop
         id="stop4662"
         offset="1"
         style="stop-color:#ffffff;stop-opacity:1" />
    </linearGradient>
    <filter
       height="1.3025489"
       y="-0.15127444"
       width="1.0748425"
       x="-0.037421186"
       id="filter4223"
       style="color-interpolation-filters:sRGB">
      <feGaussianBlur
         id="feGaussianBlur4225"
         stdDeviation="87.245405" />
    </filter>
    <linearGradient
       gradientUnits="userSpaceOnUse"
       y2="616.7345"
       x2="4327.4082"
       y1="-2748.6533"
       x1="2384.4009"
       id="linearGradient4666"
       xlink:href="#linearGradient4658" />
  </defs>
  <metadata
     id="metadata7">
    <rdf:RDF>
      <cc:Work
         rdf:about="">
        <dc:format>image/svg+xml</dc:format>
        <dc:type
           rdf:resource="http://purl.org/dc/dcmitype/StillImage" />
        <dc:title />
      </cc:Work>
    </rdf:RDF>
  </metadata>
  <g
     transform="translate(0,4747.6372)"
     id="layer1">
    <rect
       y="-4747.6372"
       x="0"
       height="5800"
       width="8202.0205"
       id="rect4656"
       style="color:#000000;clip-rule:nonzero;display:inline;overflow:visible;visibility:visible;opacity:1;isolation:auto;mix-blend-mode:normal;color-interpolation:sRGB;color-interpolation-filters:linearRGB;solid-color:#000000;solid-opacity:1;fill:#ffffff;fill-opacity:1;fill-rule:nonzero;stroke:none;stroke-width:1;stroke-linecap:butt;stroke-linejoin:miter;stroke-miterlimit:4;stroke-dasharray:none;stroke-dashoffset:0;stroke-opacity:1;color-rendering:auto;image-rendering:auto;shape-rendering:auto;text-rendering:auto;enable-background:accumulate" />
    <g
       transform="matrix(0.84825671,0,0,0.84825671,5.7363422,-1942.9349)"
       id="text4245"
       style="font-size:1500px;font-style:normal;font-weight:normal;text-align:center;line-height:125%;letter-spacing:0px;word-spacing:0px;text-anchor:middle;fill:#aad400;fill-opacity:1;stroke:none;font-family:sans-serif">
      <path
         id="path4285"
         style="font-size:625px;font-style:normal;font-variant:normal;font-weight:normal;font-stretch:normal;text-align:start;text-anchor:start;fill:#aad400;font-family:Andika;-inkscape-font-specification:Andika"
         d="m 485.52492,-2440.6213 0,48.8281 -177.00196,0 0,73.2422 q 0,45.4712 0.61036,80.2612 0.61035,34.4849 3.96728,52.4902 l -67.13867,0 q 3.35693,-18.3105 3.96728,-52.7954 0.61036,-34.79 0.61036,-79.956 l 0,-221.2525 q 0,-20.4467 -0.61036,-37.5366 -0.30517,-17.395 -1.2207,-31.1279 -0.91553,-13.7329 -2.74658,-22.8882 l 265.50293,0 0,50.354 -202.9419,0 0,140.3809 177.00196,0 z"
         inkscape:connector-curvature="0" />
      <path
         id="path4287"
         style="font-size:625px;font-style:normal;font-variant:normal;font-weight:normal;font-stretch:normal;text-align:start;text-anchor:start;fill:#aad400;font-family:Andika;-inkscape-font-specification:Andika"
         d="m 663.13722,-2330.7581 q 0,14.6485 0.30518,34.4849 0.61035,19.8364 1.2207,40.2832 0.91553,20.4468 1.83106,39.0625 1.2207,18.6157 2.74658,31.1279 l -62.56104,0 0,-344.8486 q 0,-44.5557 -1.52588,-80.5664 -1.52588,-36.3159 -4.57763,-62.8662 l 62.56103,0 0,343.3227 z"
         inkscape:connector-curvature="0" />
      <path
         id="path4289"
         style="font-size:625px;font-style:normal;font-variant:normal;font-weight:normal;font-stretch:normal;text-align:start;text-anchor:start;fill:#aad400;font-family:Andika;-inkscape-font-specification:Andika"
         d="m 806.26466,-2333.8098 q 0.91553,26.8555 8.23975,46.6919 7.62939,19.8364 20.44678,32.959 13.12256,12.8173 30.51758,19.226 17.70019,6.4087 38.45214,6.4087 29.60205,0 57.9834,-6.7138 28.38135,-6.7139 56.45749,-23.8037 l 6.1035,50.354 q -16.1743,8.2397 -31.73823,14.038 -15.56397,5.7984 -31.12793,9.4605 -15.56397,3.6621 -31.73828,5.188 -15.86915,1.831 -33.56934,1.831 -29.29688,0 -55.84717,-10.0708 -26.55029,-10.3759 -46.69189,-30.2124 -20.1416,-20.1416 -32.04346,-49.7436 -11.90186,-29.6021 -11.90186,-68.6646 0,-37.8418 10.0708,-68.3593 10.37598,-30.8228 29.29688,-52.4903 18.9209,-21.9726 46.08154,-33.5693 27.16065,-11.9019 61.03516,-11.9019 25.02441,0 44.25049,6.1035 19.22607,5.7984 33.26416,16.4795 14.03808,10.376 23.49853,24.4141 9.4605,14.0381 14.9536,30.2124 5.7984,16.1743 8.2398,33.8745 2.4414,17.395 2.4414,34.4849 l 0,11.9018 q 0,7.6294 -0.3052,11.9019 l -216.36964,0 z m 85.44922,-123.5962 q -33.56933,0 -54.93164,19.8364 -21.3623,19.5313 -28.07617,61.0352 l 159.30176,0 q 0,-19.5313 -5.79834,-34.4849 -5.49317,-15.2588 -15.86914,-25.6348 -10.0708,-10.3759 -24.10889,-15.5639 -14.03809,-5.188 -30.51758,-5.188 z"
         inkscape:connector-curvature="0" />
      <path
         id="path4291"
         style="font-size:625px;font-style:normal;font-variant:normal;font-weight:normal;font-stretch:normal;text-align:start;text-anchor:start;fill:#aad400;font-family:Andika;-inkscape-font-specification:Andika"
         d="m 1218.8623,-2300.5457 -79.6509,114.7461 -68.6645,0 q 12.5122,-16.4795 21.0571,-27.4658 8.5449,-11.2915 14.9536,-20.1416 6.7139,-8.8501 12.2071,-16.7847 5.7983,-7.9345 12.8173,-18.0053 l 54.3213,-78.7354 -48.2177,-67.749 q -7.6294,-10.6811 -14.0381,-19.2261 -6.4087,-8.5449 -13.4278,-17.395 -7.019,-8.8501 -15.8691,-19.5312 -8.5449,-10.9864 -20.752,-26.2452 l 70.1905,0 79.3457,110.1685 74.768,-110.1685 68.6646,0 q -11.9019,15.2588 -20.1416,26.2452 -8.2397,10.6811 -14.9536,19.8364 -6.7139,8.8501 -12.8174,17.395 -5.7983,8.5449 -13.1226,18.9209 l -49.7436,73.2422 52.7954,73.2422 q 8.2397,11.5967 14.3433,19.8364 6.1035,7.9346 12.8173,16.4795 6.7139,8.5449 14.6485,19.2261 8.2397,10.6811 20.7519,26.8554 l -70.1904,0 -82.0923,-114.7461 z"
         inkscape:connector-curvature="0" />
      <path
         id="path4293"
         style="font-size:625px;font-style:normal;font-variant:normal;font-weight:normal;font-stretch:normal;text-align:start;text-anchor:start;fill:#aad400;font-family:Andika;-inkscape-font-specification:Andika"
         d="m 1637.8687,-2448.2507 q -7.6294,-1.5259 -22.2779,-3.6621 -14.3432,-2.4414 -37.2314,-2.4414 -29.9072,0 -50.0488,12.207 -19.8365,11.9018 -31.7383,32.0434 -11.9019,19.8365 -17.0899,45.7764 -4.8828,25.9399 -4.8828,53.4058 0,17.7002 3.357,32.6538 3.6621,14.6484 9.7656,25.6347 6.1035,10.6812 14.0381,16.7847 7.9345,5.7984 17.0898,5.7984 10.0708,0 20.4468,-6.7139 10.6811,-6.7139 20.7519,-18.0054 10.376,-11.5967 20.1416,-26.5503 9.7657,-14.9536 18.3106,-31.4331 8.5449,-16.7847 15.8691,-33.8745 7.3243,-17.0898 12.5122,-32.3486 5.188,-15.564 7.9346,-28.3814 3.0518,-12.8174 3.0518,-21.0571 l 0,-19.8364 z m 22.8882,262.4511 q -3.357,-7.3242 -6.1036,-21.9726 -2.4414,-14.6485 -4.2724,-31.4331 -1.5259,-17.0899 -2.4414,-33.2642 -0.9156,-16.1743 -0.9156,-26.2451 l 0,-30.5176 q -9.7656,25.94 -23.4985,52.7954 -13.4277,26.8555 -30.8227,48.8282 -17.3951,21.6674 -38.4522,35.7055 -20.7519,13.7329 -44.5557,13.7329 -19.226,0 -36.0107,-8.5449 -16.7847,-8.5449 -29.2969,-25.3296 -12.207,-16.7846 -19.2261,-41.5039 -7.019,-25.0244 -7.019,-57.373 0,-36.3159 9.7656,-70.8008 9.7657,-34.7901 29.9073,-61.6455 20.1416,-27.1607 51.2695,-43.335 31.1279,-16.4795 73.8525,-16.4795 29.6021,0 58.899,3.9673 29.2968,3.6621 52.4902,9.7656 l 0,141.9068 q 0,57.6782 5.4932,97.0459 5.4931,39.0625 14.3432,64.6972 l -53.4057,0 z"
         inkscape:connector-curvature="0" />
      <path
         id="path4295"
         style="font-size:625px;font-style:normal;font-variant:normal;font-weight:normal;font-stretch:normal;text-align:start;text-anchor:start;fill:#aad400;font-family:Andika;-inkscape-font-specification:Andika"
         d="m 1982.1069,-2439.0955 q -7.3242,-2.7465 -15.5639,-4.8828 -8.2398,-2.4414 -16.7847,-3.9673 -8.5449,-1.5258 -16.7847,-2.4414 -7.9345,-0.9155 -14.9536,-0.9155 -25.0244,0 -42.7246,10.376 -17.7002,10.0708 -28.9917,26.8555 -10.9863,16.4794 -16.1743,37.5366 -5.188,21.0571 -5.188,42.7246 0,28.3813 4.2725,47.3022 4.5776,18.6158 12.207,29.9073 7.9346,10.9863 18.3106,15.8691 10.6811,4.5776 23.1933,4.5776 11.5967,0 24.7193,-4.5776 13.1225,-4.8828 26.2451,-13.7329 13.4277,-8.8501 25.6347,-21.9727 12.5122,-13.1225 22.583,-29.9072 l 0,-132.7515 z m 56.4576,245.6665 q 0,40.2832 -11.9019,68.9698 -11.5967,28.6865 -30.8227,46.6919 -18.9209,18.3105 -43.335,26.8554 -24.4141,8.545 -49.7437,8.545 -29.2968,0 -58.2885,-10.0708 -28.6866,-10.0708 -53.1006,-26.5503 l 19.8364,-47.3023 q 21.6675,15.564 43.6401,25.3296 21.9727,9.7656 44.8609,9.7656 11.9018,0 26.2451,-4.2724 14.3433,-4.2725 26.8555,-14.9536 12.5122,-10.376 20.7519,-28.0762 8.5449,-17.7002 8.5449,-44.2505 l 0,-56.4575 q -11.9018,14.9536 -25.3295,25.6347 -13.1226,10.376 -26.8555,17.0899 -13.4277,6.4087 -27.1607,9.4604 -13.4277,2.7466 -25.9399,2.7466 -21.0571,0 -40.5884,-7.3242 -19.5312,-7.3242 -34.79,-23.1934 -14.9536,-16.1743 -24.1089,-41.809 -8.8501,-25.6348 -8.8501,-61.9507 0,-35.0952 9.1553,-68.3594 9.1552,-33.2642 28.3813,-58.8989 19.2261,-25.94 49.1333,-41.5039 30.2124,-15.8692 72.0215,-15.8692 13.7329,0 28.0762,2.1363 14.6484,1.831 28.9917,5.1879 14.3432,3.357 28.0762,7.6294 13.7329,3.9673 26.2451,7.9346 l 0,286.8652 z"
         inkscape:connector-curvature="0" />
      <path
         id="path4297"
         style="font-size:625px;font-style:normal;font-variant:normal;font-weight:normal;font-stretch:normal;text-align:start;text-anchor:start;fill:#aad400;font-family:Andika;-inkscape-font-specification:Andika"
         d="m 2164.9072,-2339.9133 q 0,26.5503 6.4087,47.6074 6.4087,21.0571 18.0054,35.7056 11.9019,14.3432 28.0762,21.9726 16.1743,7.6294 36.0107,7.6294 18.3106,0 34.4849,-7.6294 16.1743,-7.6294 28.0762,-21.9726 12.207,-14.6485 18.9209,-35.7056 7.019,-21.0571 7.019,-47.6074 0,-26.8555 -6.4087,-47.9126 -6.4087,-21.3623 -18.3105,-36.0108 -11.5967,-14.9536 -28.0762,-22.583 -16.1743,-7.9345 -35.7056,-7.9345 -18.6157,0 -34.79,7.9345 -16.1743,7.6294 -28.0762,22.583 -11.9018,14.6485 -18.9209,36.0108 -6.7139,21.0571 -6.7139,47.9126 z m -56.4575,0 q 0,-39.3677 11.9019,-69.5801 11.9018,-30.5176 32.0434,-51.2695 20.1416,-21.0572 46.9971,-31.7383 26.8555,-10.6812 57.0679,-10.6812 31.4331,0 57.373,10.6812 26.2451,10.6811 44.8609,31.7383 18.9209,20.7519 29.2968,51.2695 10.376,30.2124 10.376,69.5801 0,39.3676 -11.9018,69.58 -11.9019,30.2125 -32.0435,50.6592 -20.1416,20.4468 -46.9971,31.128 -26.8554,10.3759 -57.0678,10.3759 -31.4331,0 -57.6783,-10.3759 -25.9399,-10.6812 -44.8608,-31.128 -18.6157,-20.4467 -28.9917,-50.6592 -10.376,-30.2124 -10.376,-69.58 z"
         inkscape:connector-curvature="0" />
      <path
         id="path4299"
         style="font-size:625px;font-style:normal;font-variant:normal;font-weight:normal;font-stretch:normal;text-align:start;text-anchor:start;fill:#aad400;font-family:Andika;-inkscape-font-specification:Andika"
         d="m 2691.3355,-2185.7996 0,-167.8466 q 0,-28.6866 -3.9673,-47.3023 -3.6621,-18.6157 -11.2915,-29.2969 -7.3242,-10.9863 -18.9209,-15.2588 -11.2915,-4.2724 -26.8555,-4.2724 -16.4795,0 -32.3486,7.9346 -15.564,7.6294 -28.6865,20.1416 -13.1226,12.207 -23.1934,27.771 -10.0708,15.5639 -14.9536,31.1279 l 0,177.0019 -56.4575,0 0,-187.6831 q 0,-45.166 -5.188,-76.2939 -4.8828,-31.4331 -10.0708,-47.3023 l 54.9316,0 q 1.8311,4.8829 3.6621,12.8174 1.8311,7.6294 3.357,16.1743 1.5258,8.545 2.7465,16.7847 l 2.4414,13.7329 q 28.9917,-34.79 58.5938,-50.0488 29.602,-15.564 61.9507,-15.564 48.8281,0 74.768,32.0435 25.94,31.7383 25.94,94.6045 l 0,190.7348 -56.4575,0 z"
         inkscape:connector-curvature="0" />
      <path
         id="path4301"
         style="font-size:625px;font-style:normal;font-variant:normal;font-weight:normal;font-stretch:normal;text-align:start;text-anchor:start;fill:#aad400;font-family:Andika;-inkscape-font-specification:Andika"
         d="m 2874.1358,-2333.8098 q 0.9155,26.8555 8.2397,46.6919 7.6294,19.8364 20.4468,32.959 13.1225,12.8173 30.5176,19.226 17.7002,6.4087 38.4521,6.4087 29.6021,0 57.9834,-6.7138 28.3814,-6.7139 56.4575,-23.8037 l 6.1035,50.354 q -16.1743,8.2397 -31.7382,14.038 -15.564,5.7984 -31.128,9.4605 -15.5639,3.6621 -31.7383,5.188 -15.8691,1.831 -33.5693,1.831 -29.2969,0 -55.8472,-10.0708 -26.5502,-10.3759 -46.6918,-30.2124 -20.1417,-20.1416 -32.0435,-49.7436 -11.9019,-29.6021 -11.9019,-68.6646 0,-37.8418 10.0708,-68.3593 10.376,-30.8228 29.2969,-52.4903 18.9209,-21.9726 46.0816,-33.5693 27.1606,-11.9019 61.0351,-11.9019 25.0244,0 44.2505,6.1035 19.2261,5.7984 33.2642,16.4795 14.038,10.376 23.4985,24.4141 9.4604,14.0381 14.9536,30.2124 5.7983,16.1743 8.2398,33.8745 2.4414,17.395 2.4414,34.4849 l 0,11.9018 q 0,7.6294 -0.3052,11.9019 l -216.3696,0 z m 85.4492,-123.5962 q -33.5694,0 -54.9317,19.8364 -21.3623,19.5313 -28.0761,61.0352 l 159.3017,0 q 0,-19.5313 -5.7983,-34.4849 -5.4932,-15.2588 -15.8692,-25.6348 -10.0708,-10.3759 -24.1088,-15.5639 -14.0381,-5.188 -30.5176,-5.188 z"
         inkscape:connector-curvature="0" />
    </g>
    <g
       transform="matrix(0.84825671,0,0,0.84825671,-222.73822,-1942.9349)"
       id="text4668"
       style="font-size:312.5px;font-style:normal;font-variant:normal;font-weight:normal;font-stretch:normal;text-align:center;line-height:125%;letter-spacing:0px;word-spacing:0px;text-anchor:middle;fill:#677821;fill-opacity:1;stroke:none;font-family:Andika;-inkscape-font-specification:Andika">
      <path
         id="path4673"
         d="m 2395.345,-1966.4628 q 0,22.7356 0.3051,40.1306 0.3052,17.2425 1.9837,26.2452 l -33.5693,0 q 1.6784,-9.1553 1.9836,-26.3977 0.3052,-17.3951 0.3052,-39.9781 l 0,-108.0322 q 0,-10.6811 -0.3052,-19.8364 -0.1526,-9.3079 -0.6104,-16.6321 -0.4577,-7.3242 -1.3732,-11.9019 9.613,-0.3051 20.2941,-0.7629 9.1553,-0.3052 20.5994,-0.4578 11.5967,-0.3051 23.9563,-0.3051 18.4631,0 33.4168,4.2724 14.9536,4.1199 25.4821,12.6648 10.5286,8.3924 16.1743,21.0571 5.7984,12.5123 5.7984,29.1443 0,16.7847 -5.6458,30.2124 -5.4931,13.4278 -16.0217,22.8882 -10.376,9.3079 -25.4822,14.3433 -14.9536,5.0354 -33.7219,5.0354 -8.3923,0 -17.2424,-0.3052 -8.8501,-0.4578 -16.3269,-1.2207 l 0,19.8364 z m 0,-43.4875 q 7.3242,0.9155 14.9536,1.2207 7.6294,0.3052 16.3269,0.3052 16.0217,0 26.3977,-3.6621 10.5286,-3.6622 16.6321,-9.9183 6.2561,-6.4087 8.6975,-14.6484 2.4414,-8.3923 2.4414,-17.5476 0,-9.1553 -2.7466,-17.395 -2.594,-8.3924 -8.8501,-14.6485 -6.1035,-6.2561 -16.3269,-9.9182 -10.2234,-3.8147 -25.4822,-3.8147 -5.3405,0 -9.613,0.1526 -4.2725,0 -7.9346,0.1526 -3.6621,0 -7.1716,0.1526 -3.5095,0.1526 -7.3242,0.3052 l 0,89.2639 z"
         inkscape:connector-curvature="0" />
      <path
         id="path4675"
         d="m 2626.6682,-2093.1107 -38.4521,110.6262 77.362,0 -38.9099,-110.6262 z m -98.4192,193.0237 q 1.9837,-4.5777 4.1199,-9.6131 2.1362,-5.0354 4.5776,-11.2915 2.594,-6.4087 5.6458,-14.4958 3.0517,-8.0872 7.019,-18.7683 l 61.0352,-168.6097 32.8064,0 61.0351,168.6097 q 3.8147,10.6811 6.8665,18.7683 3.0518,8.0871 5.6457,14.4958 2.594,6.2561 4.7303,11.2915 2.1362,5.0354 4.1198,9.6131 l -31.2805,0 -20.7519,-58.7464 -93.8416,0 -20.4468,58.7464 -31.2805,0 z"
         inkscape:connector-curvature="0" />
      <path
         id="path4677"
         d="m 2918.2637,-2122.8654 0,28.2288 q -9.1553,-1.9836 -18.158,-2.4414 -8.8501,-0.6104 -19.2261,-0.6104 l -36.6211,0 0,131.2256 q 0,22.583 0.4578,39.9781 0.6104,17.2424 2.594,26.3977 l -35.0952,0 q 1.9836,-9.1553 2.4414,-26.3977 0.6103,-17.3951 0.6103,-39.9781 l 0,-131.2256 -35.8581,0 q -10.2234,0 -19.2261,0.6104 -9.0027,0.4578 -18.1579,2.4414 l 0,-28.2288 176.239,0 z"
         inkscape:connector-curvature="0" />
      <path
         id="path4679"
         d="m 2983.7239,-1966.4628 q 0,11.2915 0,21.3623 0.1526,10.0708 0.3052,18.6158 0.3051,8.5449 0.7629,15.2587 0.4578,6.7139 1.2207,11.139 l -33.5693,0 q 1.6784,-9.1553 1.9836,-26.3977 0.3052,-17.3951 0.3052,-39.9781 l 0,-108.0322 q 0,-10.6811 -0.3052,-19.8364 -0.1526,-9.3079 -0.6103,-16.6321 -0.4578,-7.3242 -1.3733,-11.9019 7.9345,-0.3051 17.5476,-0.7629 8.2397,-0.3052 19.5312,-0.4578 11.2915,-0.3051 24.7193,-0.3051 17.8527,0 32.5012,3.6621 14.801,3.5095 25.3296,11.1389 10.5285,7.4768 16.3269,19.3787 5.9509,11.9018 5.9509,28.3813 0,13.8855 -4.4251,24.5667 -4.2724,10.6811 -11.444,18.4631 -7.0191,7.6294 -16.0218,12.6648 -9.0027,5.0354 -18.3105,7.6294 4.5776,6.2561 11.1389,15.4114 6.7139,9.0026 14.1907,19.226 7.6294,10.0708 15.2588,20.5994 7.7819,10.376 14.4958,19.2261 6.7139,8.8501 11.7493,15.2588 5.0354,6.4086 7.019,8.6975 l -38.9099,0 -64.3921,-95.3675 -30.9753,0 0,28.9917 z m 0,-52.6428 28.9917,0 q 25.9399,0 39.2151,-10.6811 13.4277,-10.6812 13.4277,-29.7547 0,-9.7656 -3.0518,-17.2424 -2.8991,-7.6294 -9.3078,-12.6648 -6.2561,-5.188 -16.3269,-7.782 -9.9182,-2.7466 -23.9563,-2.7466 -8.0872,0 -15.564,0.3052 -7.3242,0.1526 -13.4277,0.4578 l 0,80.1086 z"
         inkscape:connector-curvature="0" />
      <path
         id="path4681"
         d="m 3332.082,-2013.0021 q 0,27.4658 -8.2397,49.1333 -8.0872,21.6675 -21.6675,36.7737 -13.4277,14.9536 -30.6702,22.8882 -17.2424,7.9346 -35.5529,7.9346 -18.4632,0 -35.4004,-7.4768 -16.9373,-7.4769 -29.9073,-21.9727 -12.9699,-14.4959 -20.7519,-35.553 -7.782,-21.2097 -7.782,-48.6755 0,-18.3106 3.6621,-34.0271 3.8147,-15.7166 10.376,-28.6865 6.7139,-12.97 15.8691,-23.0408 9.1553,-10.0708 19.8365,-16.9373 10.8337,-6.8664 22.7356,-10.3759 12.0544,-3.6622 24.414,-3.6622 18.158,0 34.9426,7.4769 16.9373,7.4768 29.7547,21.9726 12.97,14.4959 20.5993,35.7056 7.782,21.0571 7.782,48.5229 z m -29.7546,3.8147 q 0,-21.0571 -4.7302,-37.8418 -4.5777,-16.9372 -13.1226,-28.6865 -8.5449,-11.7493 -20.5994,-18.0054 -11.9018,-6.2561 -26.3977,-6.2561 -14.4958,0 -26.5503,6.1035 -12.0544,5.951 -20.7519,17.2425 -8.6975,11.1389 -13.5803,27.1606 -4.7303,15.8692 -4.7303,35.7056 0,20.9045 4.5777,37.6892 4.7302,16.7847 13.2751,28.6865 8.6975,11.7493 20.752,18.158 12.0544,6.2561 27.008,6.2561 14.0381,0 25.94,-5.7984 11.9018,-5.9509 20.4468,-16.9372 8.6975,-11.1389 13.5803,-27.1607 4.8828,-16.0217 4.8828,-36.3159 z"
         inkscape:connector-curvature="0" />
      <path
         id="path4683"
         d="m 3402.2725,-2075.8683 0,175.7813 -27.4659,0 q 1.6785,-9.1553 1.9837,-26.3977 0.3052,-17.3951 0.3052,-39.9781 l 0,-90.0268 q 0,-22.583 -0.3052,-39.8255 -0.3052,-17.395 -1.9837,-26.5503 l 27.4659,0 121.3073,176.5442 0,-176.5442 27.4659,0 q -0.763,4.5777 -1.2207,11.2915 -0.4578,6.7139 -0.763,15.2588 -0.1526,8.3924 -0.3052,18.4632 0,10.0708 0,21.3623 l 0,156.4026 -25.177,0 -121.3073,-175.7813 z"
         inkscape:connector-curvature="0" />
    </g>
    <g
       transform="matrix(0.77515627,0,0,0.63213061,42.201849,-1316.0262)"
       style="font-size:577.59014893px;font-style:normal;font-variant:normal;font-weight:normal;font-stretch:normal;text-align:center;line-height:125%;letter-spacing:0px;word-spacing:0px;text-anchor:middle;fill:#aad400;fill-opacity:1;stroke:none;font-family:Linux Biolinum;-inkscape-font-specification:Linux Biolinum"
       id="text3399">
      <path
         d="m 1069.2498,-4748.6048 q 0,-74.455 -5.9226,-115.6308 l 1.1281,-1.6922 q 10.435,1.6922 29.6128,1.6922 19.7419,0 29.8948,-1.6922 l 0.5641,1.6922 q -5.6406,38.0735 -5.6406,115.6308 l 0,141.2952 q 0,74.455 5.6406,115.6309 l -1.1281,1.6921 q -10.435,-1.6921 -29.3308,-1.6921 -19.7418,0 -30.1768,1.6921 l -0.5641,-1.6921 q 5.6406,-39.2017 5.9226,-115.6309 l 0,-69.6605 -199.95676,0 0,69.6605 q 0,74.455 5.92255,115.6309 l -1.1281,1.6921 q -10.43498,-1.6921 -29.61278,-1.6921 -19.74185,0 -29.8948,1.6921 l -0.56405,-1.6921 q 5.64053,-39.2017 5.64053,-115.6309 l 0,-141.2952 q 0,-74.455 -5.64053,-115.6308 l 1.1281,-1.6922 q 10.43498,1.6922 29.33075,1.6922 19.74185,0 30.17683,-1.6922 l 0.56405,1.6922 q -5.64052,38.0735 -5.92255,115.6308 l 0,45.9703 199.95676,0 0,-45.9703 z"
         id="path3404"
         inkscape:connector-curvature="0" />
      <path
         d="m 1251.4389,-4649.3315 106.3239,0 q 8.1788,0 8.1788,-8.1788 0,-30.7408 -14.9474,-47.6624 -14.6654,-16.9216 -33.8432,-16.9216 -18.8958,0 -39.2017,16.6395 -20.0238,16.3576 -26.5104,56.1233 z m 154.2684,97.5812 11.5631,14.3833 q -16.6396,23.1262 -43.4321,37.2275 -26.5105,14.1013 -57.2513,14.1013 -60.0717,0 -91.6586,-38.0736 -25.9465,-31.3049 -25.9465,-88.2742 0,-60.6357 35.5354,-96.7351 35.5353,-36.0994 82.6337,-36.0994 51.8929,0 75.8651,32.9971 24.2543,32.7151 24.2543,76.1472 0,9.8709 -10.435,9.8709 l -157.0887,0 q 0,51.3288 13.8193,73.3269 20.87,32.997 62.8919,32.997 49.9187,0 79.2494,-31.8689 z"
         id="path3406"
         inkscape:connector-curvature="0" />
      <path
         d="m 1544.1823,-4611.2579 -92.7867,-130.0142 q 12.6912,1.6921 33.5612,1.6921 17.2036,0 31.3049,-1.6921 5.0765,8.4608 17.2036,29.6128 12.1272,20.8699 21.434,35.8173 9.3069,14.9474 19.7419,29.0487 14.3833,-18.6137 37.7915,-54.149 23.6902,-35.8174 26.7925,-40.3298 8.1788,1.6921 21.434,1.6921 16.0756,0 25.9465,-1.6921 l -94.7609,116.4769 q 8.4608,12.4092 28.2026,42.0219 19.7419,29.3308 34.9713,51.0468 15.2294,21.434 31.0229,41.7399 -15.5114,-1.6921 -32.9971,-1.6921 -17.7676,0 -29.6127,1.6921 -3.1023,-4.7944 -25.3824,-41.1758 -21.9981,-36.6634 -35.8174,-55.8412 -12.9732,18.0496 -33.5611,51.3288 -20.3059,32.9971 -28.7667,45.6882 -9.871,-1.6921 -25.3824,-1.6921 -11.5631,0 -20.87,1.6921 l 90.5305,-121.2713 z"
         id="path3408"
         inkscape:connector-curvature="0" />
      <path
         d="m 1879.5118,-4621.6929 -49.0726,13.2552 q -31.869,8.7429 -44.5602,22.8442 -12.6912,14.1013 -12.6912,34.9713 0,13.8193 11.8451,24.5363 11.8451,10.717 31.0229,10.717 23.1262,0 53.021,-22.5621 8.1787,-5.6406 8.1787,-14.9474 l 2.2563,-68.8145 z m 0,102.3756 -2.2563,0 q -23.1261,19.7418 -39.2016,26.5105 -15.7935,6.7686 -39.4837,6.7686 -33.5612,0 -53.021,-15.5114 -19.1778,-15.5115 -19.1778,-46.8164 0,-29.3308 25.6644,-51.6109 25.6644,-22.2801 70.2246,-32.151 l 53.867,-12.1271 q 3.9484,-1.1281 3.9484,-6.7686 0,-18.6138 -4.2304,-32.1511 -3.9484,-13.5372 -9.3069,-20.0238 -5.0764,-6.7687 -13.8193,-10.435 -8.4608,-3.9484 -14.3833,-4.7945 -5.6405,-0.846 -13.8193,-0.846 -32.9971,0 -63.456,49.0726 l -7.6147,-0.5641 -9.5889,-38.6376 1.6922,-2.2562 q 39.7657,-33.5612 84.89,-33.5612 95.3249,0 95.3249,93.6328 0,1.9742 -0.8461,39.7657 -0.8461,37.7916 -0.8461,47.3805 0,36.3814 9.5889,45.1242 4.7945,4.2304 16.9216,4.2304 7.0507,0 15.5115,-3.1023 l 4.5124,14.3834 q -16.9216,17.7676 -45.9703,17.7676 -16.3575,0 -28.4847,-8.4608 -11.8451,-8.4608 -16.6395,-24.8183 z"
         id="path3410"
         inkscape:connector-curvature="0" />
      <path
         d="m 2253.4788,-4748.6048 q 0,-67.6863 -4.5125,-83.1978 -34.6892,0 -64.02,1.9742 -29.0487,1.9742 -40.8938,3.9484 l -11.8451,1.9741 -1.1281,-2.2562 q 1.6921,-13.2552 0,-38.0735 l 1.1281,-1.6922 q 13.8193,1.6922 34.6892,1.6922 l 222.8009,0 q 20.87,0 34.6893,-1.6922 l 1.1281,1.6922 q -1.6922,24.8183 0,38.0735 l -1.1281,2.2562 q -39.2017,-8.1787 -116.759,-7.8967 -4.5124,15.5115 -4.5124,83.1978 l 0,141.2952 q 0,74.455 5.9226,115.6309 l -1.4102,1.6921 q -10.4349,-1.6921 -29.6127,-1.6921 -18.8958,0 -29.0488,1.6921 l -1.4101,-1.6921 q 5.6405,-39.2017 5.9226,-115.6309 l 0,-141.2952 z"
         id="path3412"
         inkscape:connector-curvature="0" />
      <path
         d="m 2561.4516,-4879.183 q 3.3843,-1.1281 8.1788,-1.1281 17.7677,0 31.587,13.2552 l 1.6921,6.2046 -66.2762,63.1739 q -10.999,10.999 -17.4856,10.717 -2.8203,0 -5.3585,-2.2562 -2.5383,-2.2562 -2.5383,-5.0765 0,-5.6405 6.4866,-16.0755 l 43.7141,-68.8144 z m -83.7618,229.8515 106.3239,0 q 8.1788,0 8.1788,-8.1788 0,-30.7408 -14.9474,-47.6624 -14.6654,-16.9216 -33.8432,-16.9216 -18.8957,0 -39.2016,16.6395 -20.0239,16.3576 -26.5105,56.1233 z m 154.2684,97.5812 11.5631,14.3833 q -16.6395,23.1262 -43.4321,37.2275 -26.5104,14.1013 -57.2513,14.1013 -60.0717,0 -91.6586,-38.0736 -25.9464,-31.3049 -25.9464,-88.2742 0,-60.6357 35.5353,-96.7351 35.5353,-36.0994 82.6337,-36.0994 51.8929,0 75.8651,32.9971 24.2543,32.7151 24.2543,76.1472 0,9.8709 -10.435,9.8709 l -157.0887,0 q 0,51.3288 13.8193,73.3269 20.87,32.997 62.8919,32.997 49.9187,0 79.2494,-31.8689 z"
         id="path3414"
         inkscape:connector-curvature="0" />
      <path
         d="m 2722.2067,-4739.58 q 0,-34.1252 2.2563,-73.8909 l 1.1281,-1.6921 q 8.7428,-1.1281 14.6653,-3.1023 6.2046,-1.9742 13.8193,-5.6406 7.8968,-3.9483 11.8451,-5.6405 5.0765,0 5.3585,5.6405 -2.8202,36.9455 -3.1022,84.3259 l 27.3565,0 q 10.999,0 40.3298,-1.1281 l 2.8203,4.2304 q -4.5125,11.5631 -6.7687,23.6903 -11.5631,-1.1281 -41.7399,-1.1281 l -21.998,0 0,72.7628 q 0,19.7418 -0.8461,45.1242 -0.8461,25.1004 -0.8461,31.587 0,44.5601 19.1778,47.3804 22.2801,3.6664 45.4062,-4.5124 l 7.0507,14.3833 q -33.5611,21.434 -66.8403,21.152 -21.434,0 -36.3814,-14.3833 -14.6653,-14.3834 -14.6653,-40.8939 0,-6.4866 0.846,-40.0477 1.1281,-33.8432 1.1281,-53.585 l 0,-78.9674 q -27.0745,0 -41.1758,1.1281 l -2.8203,-4.2304 q 8.1788,-12.6912 12.6912,-23.6903 8.1788,1.1281 31.3049,1.1281 z"
         id="path3416"
         inkscape:connector-curvature="0" />
      <path
         d="m 2959.955,-4684.5848 1.6922,1.1281 q 20.3059,-34.6892 35.5353,-48.2265 15.2295,-13.5373 37.7916,-13.5373 7.0506,0 20.8699,3.9484 l 2.2562,2.2562 -11.563,42.868 -4.5125,1.1281 q -8.7428,-8.1787 -30.1768,-8.1787 -19.1778,0 -32.151,20.3059 -19.7419,29.8948 -19.7419,57.2513 l 0,29.8948 q 0,64.5841 5.0765,104.0678 l -1.1281,1.6921 q -10.435,-1.6921 -27.0745,-1.6921 -16.6396,0 -27.0746,1.6921 l -1.1281,-1.6921 q 5.0765,-35.8174 5.0765,-104.0678 l 0,-31.5869 q 0,-79.8135 -5.0765,-112.2466 l 1.1281,-1.6921 q 25.3824,2.2562 46.8164,-1.6922 3.3843,0 3.3843,5.9226 l 0,52.4569 z"
         id="path3418"
         inkscape:connector-curvature="0" />
      <path
         d="m 3247.904,-4621.6929 -49.0726,13.2552 q -31.869,8.7429 -44.5602,22.8442 -12.6912,14.1013 -12.6912,34.9713 0,13.8193 11.8451,24.5363 11.8451,10.717 31.0229,10.717 23.1262,0 53.021,-22.5621 8.1788,-5.6406 8.1788,-14.9474 l 2.2562,-68.8145 z m 0,102.3756 -2.2562,0 q -23.1262,19.7418 -39.2017,26.5105 -15.7935,6.7686 -39.4837,6.7686 -33.5612,0 -53.021,-15.5114 -19.1778,-15.5115 -19.1778,-46.8164 0,-29.3308 25.6644,-51.6109 25.6644,-22.2801 70.2246,-32.151 l 53.867,-12.1271 q 3.9484,-1.1281 3.9484,-6.7686 0,-18.6138 -4.2304,-32.1511 -3.9483,-13.5372 -9.3069,-20.0238 -5.0764,-6.7687 -13.8192,-10.435 -8.4608,-3.9484 -14.3834,-4.7945 -5.6405,-0.846 -13.8193,-0.846 -32.9971,0 -63.4559,49.0726 l -7.6148,-0.5641 -9.5889,-38.6376 1.6922,-2.2562 q 39.7657,-33.5612 84.89,-33.5612 95.3249,0 95.3249,93.6328 0,1.9742 -0.8461,39.7657 -0.8461,37.7916 -0.8461,47.3805 0,36.3814 9.5889,45.1242 4.7945,4.2304 16.9216,4.2304 7.0507,0 15.5115,-3.1023 l 4.5124,14.3834 q -16.9216,17.7676 -45.9703,17.7676 -16.3575,0 -28.4847,-8.4608 -11.8451,-8.4608 -16.6395,-24.8183 z"
         id="path3420"
         inkscape:connector-curvature="0" />
    </g>
    <g
       id="g3876"
       transform="matrix(1.5,0,0,1.5,2323.4922,343.30501)">
      <image
         sodipodi:absref="/home/loderunner/GIT/HAUM/flexagones/Invitations_SHAUM/templates/face2-1.png"
         xlink:href="face2-1.png"
         y="2213.6965"
         x="-1197.9187"
         id="image3631"
         preserveAspectRatio="none"
         height="800"
         width="800"
         transform="scale(-1,-1)" />
      <image
         sodipodi:absref="/home/loderunner/GIT/HAUM/flexagones/Invitations_SHAUM/templates/face2-2.png"
         xlink:href="face2-2.png"
         y="-186.30334"
         x="-3597.9187"
         id="image3642"
         preserveAspectRatio="none"
         height="800"
         width="800"
         transform="scale(-1,-1)" />
      <image
         sodipodi:absref="/home/loderunner/GIT/HAUM/flexagones/Invitations_SHAUM/templates/face2-0.png"
         xlink:href="face2-0.png"
         y="2213.6965"
         x="-1997.9187"
         id="image3653"
         preserveAspectRatio="none"
         height="800"
         width="800"
         transform="scale(-1,-1)" />
      <image
         sodipodi:absref="/home/loderunner/GIT/HAUM/flexagones/Invitations_SHAUM/templates/face2-3.png"
         xlink:href="face2-3.png"
         y="-186.30334"
         x="-2797.9187"
         id="image3664"
         preserveAspectRatio="none"
         height="800"
         width="800"
         transform="scale(-1,-1)" />
      <image
         sodipodi:absref="/home/loderunner/GIT/HAUM/flexagones/Invitations_SHAUM/templates/face1-3.png"
         xlink:href="face1-3.png"
         y="-186.30334"
         x="-1997.9187"
         id="image3752"
         preserveAspectRatio="none"
         height="800"
         width="800"
         transform="scale(-1,-1)" />
      <image
         sodipodi:absref="/home/loderunner/GIT/HAUM/flexagones/Invitations_SHAUM/templates/face1-1.png"
         xlink:href="face1-1.png"
         y="-2213.6965"
         x="397.91873"
         id="image3763"
         preserveAspectRatio="none"
         height="800"
         width="800" />
      <image
         sodipodi:absref="/home/loderunner/GIT/HAUM/flexagones/Invitations_SHAUM/templates/face1-2.png"
         xlink:href="face1-2.png"
         y="-1413.6967"
         x="2797.9187"
         id="image3774"
         preserveAspectRatio="none"
         height="800"
         width="800" />
      <image
         sodipodi:absref="/home/loderunner/GIT/HAUM/flexagones/Invitations_SHAUM/templates/face1-0.png"
         xlink:href="face1-0.png"
         y="2213.6965"
         x="-2797.9187"
         id="image3785"
         preserveAspectRatio="none"
         height="800"
         width="800"
         transform="scale(-1,-1)" />
      <image
         sodipodi:absref="/home/loderunner/GIT/HAUM/flexagones/Invitations_SHAUM/templates/face4-2.png"
         xlink:href="face4-2.png"
         y="-613.69666"
         x="397.9187"
         id="image3796"
         preserveAspectRatio="none"
         height="800"
         width="800" />
      <image
         sodipodi:absref="/home/loderunner/GIT/HAUM/flexagones/Invitations_SHAUM/templates/face4-0.png"
         xlink:href="face4-0.png"
         y="-1413.6967"
         x="397.9187"
         id="image3807"
         preserveAspectRatio="none"
         height="800"
         width="800" />
      <image
         sodipodi:absref="/home/loderunner/GIT/HAUM/flexagones/Invitations_SHAUM/templates/face4-3.png"
         xlink:href="face4-3.png"
         y="-2213.6965"
         x="2797.9187"
         id="image3818"
         preserveAspectRatio="none"
         height="800"
         width="800" />
      <image
         sodipodi:absref="/home/loderunner/GIT/HAUM/flexagones/Invitations_SHAUM/templates/face4-1.png"
         xlink:href="face4-1.png"
         y="-3013.6965"
         x="2797.9187"
         id="image3829"
         preserveAspectRatio="none"
         height="800"
         width="800" />
    </g>
    <rect
       style="color:#000000;fill:none;stroke:#000000;stroke-width:7.51207972;stroke-linejoin:miter;stroke-miterlimit:4.5999999;stroke-opacity:1;stroke-dasharray:none;marker:none;visibility:visible;display:inline;overflow:visible;enable-background:accumulate"
       id="rect3043"
       width="4792.4878"
       height="4792.4878"
       x="2924.1262"
       y="-4173.4839" />
    <rect
       style="color:#000000;fill:none;stroke:#000000;stroke-width:7.50034142;stroke-linejoin:miter;stroke-miterlimit:4.5999999;stroke-opacity:1;stroke-dasharray:none;marker:none;visibility:visible;display:inline;overflow:visible;enable-background:accumulate"
       id="rect3043-7"
       width="2392.4998"
       height="2392.4995"
       x="4124.1201"
       y="580.99011"
       transform="scale(1,-1)" />
    <flowRoot
       xml:space="preserve"
       id="flowRoot3074"
       style="font-size:150px;font-style:italic;font-variant:normal;font-weight:bold;font-stretch:normal;text-align:start;line-height:125%;letter-spacing:0px;word-spacing:0px;writing-mode:lr-tb;text-anchor:start;fill:#000000;fill-opacity:1;stroke:none;font-family:Sans;-inkscape-font-specification:Sans Bold Italic"
       transform="translate(585.3548,-5286.4288)"><flowRegion
         id="flowRegion3076"><rect
           id="rect3078"
           width="589.61896"
           height="273.75165"
           x="1189.7667"
           y="1756.8987"
           style="font-size:150px;font-style:italic;font-variant:normal;font-weight:bold;font-stretch:normal;text-align:start;line-height:125%;writing-mode:lr-tb;text-anchor:start;font-family:Sans;-inkscape-font-specification:Sans Bold Italic" /></flowRegion><flowPara
         id="flowPara3080"
         style="font-size:150px;font-style:italic;font-variant:normal;font-weight:bold;font-stretch:normal;text-align:start;line-height:125%;writing-mode:lr-tb;text-anchor:start;fill:#000000;font-family:Sans;-inkscape-font-specification:Sans Bold Italic">Page1</flowPara></flowRoot>  </g>
</svg>
