<?xml version="1.0" encoding="UTF-8" standalone="no"?>
<!-- Created with Inkscape (http://www.inkscape.org/) -->

<svg
   xmlns:dc="http://purl.org/dc/elements/1.1/"
   xmlns:cc="http://creativecommons.org/ns#"
   xmlns:rdf="http://www.w3.org/1999/02/22-rdf-syntax-ns#"
   xmlns:svg="http://www.w3.org/2000/svg"
   xmlns="http://www.w3.org/2000/svg"
   xmlns:xlink="http://www.w3.org/1999/xlink"
   version="1.1"
   width="1052.3622"
   height="744.09448"
   id="svg5422">
  <defs
     id="defs3" />
  <metadata
     id="metadata4">
    <rdf:RDF>
      <cc:Work
         rdf:about="">
        <dc:format>image/svg+xml</dc:format>
        <dc:type
           rdf:resource="http://purl.org/dc/dcmitype/StillImage" />
        <dc:title></dc:title>
      </cc:Work>
    </rdf:RDF>
  </metadata>
  <image
     xlink:href="triangles/triangle01.svg"
     id="image5635"
     height="121.26823"
     width="140"
     y="250.77902"
     x="105.77888" />
  <image
     xlink:href="triangles/triangle02.svg"
     id="image5637"
     transform="scale(-1,-1)"
     height="121.26823"
     width="140"
     y="-372.04724"
     x="-315.77887" />
  <image
     xlink:href="triangles/triangle03.svg"
     id="image5639"
     height="121.26823"
     width="140"
     y="250.77902"
     x="245.77888" />
  <image
     xlink:href="triangles/triangle04.svg"
     id="image5641"
     transform="scale(-1,-1)"
     height="121.26823"
     width="140"
     y="-372.04724"
     x="-455.77884" />
  <image
     xlink:href="triangles/triangle05.svg"
     id="image5643"
     height="121.26823"
     width="140"
     y="250.77902"
     x="385.7789" />
  <image
     xlink:href="triangles/triangle06.svg"
     id="image5645"
     transform="scale(-1,-1)"
     height="121.26823"
     width="140"
     y="-372.04724"
     x="-595.77893" />
  <image
     xlink:href="triangles/triangle07.svg"
     id="image5647"
     height="121.26823"
     width="140"
     y="250.77902"
     x="525.77893" />
  <image
     xlink:href="triangles/triangle08.svg"
     id="image5649"
     transform="scale(-1,-1)"
     height="121.26823"
     width="140"
     y="-372.04724"
     x="-735.77887" />
  <image
     xlink:href="triangles/triangle09.svg"
     id="image5651"
     height="121.26823"
     width="140"
     y="250.77902"
     x="665.77887" />
  <image
     xlink:href="triangles/triangle10.svg"
     id="image5653"
     transform="scale(-1,-1)"
     height="121.26823"
     width="140"
     y="-372.04724"
     x="-875.77887" />
  <image
     xlink:href="triangles/triangle11.svg"
     id="image5655"
     height="121.26823"
     width="140"
     y="250.77902"
     x="805.77887" />
  <image
     xlink:href="triangles/triangle12.svg"
     id="image5657"
     transform="scale(-1,-1)"
     height="121.26823"
     width="140"
     y="-372.04724"
     x="-1015.7789" />
  <image
     xlink:href="triangles/triangle13.svg"
     id="image5659"
     height="121.26823"
     width="140"
     y="372.04724"
     x="36.583317" />
  <image
     xlink:href="triangles/triangle14.svg"
     id="image5661"
     transform="scale(-1,-1)"
     height="121.26823"
     width="140"
     y="-493.31546"
     x="-246.5833" />
  <image
     xlink:href="triangles/triangle15.svg"
     id="image5663"
     height="121.26823"
     width="140"
     y="372.04724"
     x="176.58333" />
  <image
     xlink:href="triangles/triangle16.svg"
     id="image5665"
     transform="scale(-1,-1)"
     height="121.26823"
     width="140"
     y="-493.31546"
     x="-386.58328" />
  <image
     xlink:href="triangles/triangle17.svg"
     id="image5667"
     height="121.26823"
     width="140"
     y="372.04724"
     x="316.58331" />
  <image
     xlink:href="triangles/triangle18.svg"
     id="image5669"
     transform="scale(-1,-1)"
     height="121.26823"
     width="140"
     y="-493.31546"
     x="-526.58337" />
  <image
     xlink:href="triangles/triangle19.svg"
     id="image5671"
     height="121.26823"
     width="140"
     y="372.04724"
     x="456.58328" />
  <image
     xlink:href="triangles/triangle20.svg"
     id="image5673"
     transform="scale(-1,-1)"
     height="121.26823"
     width="140"
     y="-493.31546"
     x="-666.58337" />
  <image
     xlink:href="triangles/triangle21.svg"
     id="image5675"
     height="121.26823"
     width="140"
     y="372.04724"
     x="596.58331" />
  <image
     xlink:href="triangles/triangle22.svg"
     id="image5677"
     transform="scale(-1,-1)"
     height="121.26823"
     width="140"
     y="-493.31546"
     x="-806.58331" />
  <image
     xlink:href="triangles/triangle23.svg"
     id="image5679"
     height="121.26823"
     width="140"
     y="372.04724"
     x="736.58331" />
  <image
     xlink:href="triangles/triangle24.svg"
     id="image5681"
     transform="scale(-1,-1)"
     height="121.26823"
     width="140"
     y="-493.31546"
     x="-946.58331" />
</svg>
