<?xml version="1.0" encoding="UTF-8" standalone="no"?>
<svg
   xmlns:dc="http://purl.org/dc/elements/1.1/"
   xmlns:cc="http://creativecommons.org/ns#"
   xmlns:rdf="http://www.w3.org/1999/02/22-rdf-syntax-ns#"
   xmlns:svg="http://www.w3.org/2000/svg"
   xmlns="http://www.w3.org/2000/svg"
   xmlns:xlink="http://www.w3.org/1999/xlink"
   xmlns:sodipodi="http://sodipodi.sourceforge.net/DTD/sodipodi-0.dtd"
   xmlns:inkscape="http://www.inkscape.org/namespaces/inkscape"
   version="1.1"
   id="svg2"
   viewBox="0 0 5800 4101.0104"
   height="4101.0103"
   width="5800"
   inkscape:version="0.91 r13725"
   sodipodi:docname="patron.svg">
  <sodipodi:namedview
     pagecolor="#ffffff"
     bordercolor="#666666"
     borderopacity="1"
     objecttolerance="10"
     gridtolerance="10"
     guidetolerance="10"
     inkscape:pageopacity="0"
     inkscape:pageshadow="2"
     inkscape:window-width="1920"
     inkscape:window-height="1016"
     id="namedview4345"
     showgrid="false"
     units="px"
     inkscape:zoom="0.16276692"
     inkscape:cx="2052.9781"
     inkscape:cy="1981.7585"
     inkscape:window-x="0"
     inkscape:window-y="27"
     inkscape:window-maximized="1"
     inkscape:current-layer="svg2"
     inkscape:snap-bbox="true"
     inkscape:bbox-nodes="true"
     inkscape:snap-page="true" />
  <defs
     id="defs4">
    <linearGradient
       id="linearGradient4658">
      <stop
         id="stop4660"
         offset="0"
         style="stop-color:#f9f9f9;stop-opacity:1" />
      <stop
         id="stop4662"
         offset="1"
         style="stop-color:#ffffff;stop-opacity:1" />
    </linearGradient>
    <filter
       height="1.3025489"
       y="-0.15127444"
       width="1.0748425"
       x="-0.037421186"
       id="filter4223"
       style="color-interpolation-filters:sRGB">
      <feGaussianBlur
         id="feGaussianBlur4225"
         stdDeviation="87.245405" />
    </filter>
    <linearGradient
       gradientUnits="userSpaceOnUse"
       y2="616.7345"
       x2="4327.4082"
       y1="-2748.6533"
       x1="2384.4009"
       id="linearGradient4666"
       xlink:href="#linearGradient4658" />
  </defs>
  <metadata
     id="metadata7">
    <rdf:RDF>
      <cc:Work
         rdf:about="">
        <dc:format>image/svg+xml</dc:format>
        <dc:type
           rdf:resource="http://purl.org/dc/dcmitype/StillImage" />
        <dc:title></dc:title>
      </cc:Work>
    </rdf:RDF>
  </metadata>
  <g
     transform="translate(0,3048.6477)"
     id="layer1">
    <rect
       y="-3048.6477"
       x="0"
       height="4101.0103"
       width="5800"
       id="rect4656"
       style="color:#000000;clip-rule:nonzero;display:inline;overflow:visible;visibility:visible;opacity:1;isolation:auto;mix-blend-mode:normal;color-interpolation:sRGB;color-interpolation-filters:linearRGB;solid-color:#000000;solid-opacity:1;fill:#ffffff;fill-opacity:1;fill-rule:nonzero;stroke:none;stroke-width:1;stroke-linecap:butt;stroke-linejoin:miter;stroke-miterlimit:4;stroke-dasharray:none;stroke-dashoffset:0;stroke-opacity:1;color-rendering:auto;image-rendering:auto;shape-rendering:auto;text-rendering:auto;enable-background:accumulate" />
    <path
       id="path4217"
       d="m 503.69137,-1690.5116 4797.53553,0 398.9922,691.0747 -792.9686,0 400.1566,693.0915 -4803.71573,0 -398.93843,-690.9817 787.9278,0 z"
       style="fill:#b3b3b3;fill-opacity:1;fill-rule:evenodd;stroke:none;stroke-width:1px;stroke-linecap:butt;stroke-linejoin:miter;stroke-opacity:1;filter:url(#filter4223)"
       inkscape:connector-curvature="0" />
    <path
       style="fill:#ffffff;fill-opacity:1;fill-rule:evenodd;stroke:none;stroke-width:1px;stroke-linecap:butt;stroke-linejoin:miter;stroke-opacity:1"
       d="m 503.69137,-1690.5116 4797.53553,0 398.9922,691.0747 -792.9686,0 400.1566,693.0915 -4803.71573,0 -398.93843,-690.9817 799.06925,0 z"
       id="path4227"
       inkscape:connector-curvature="0" />
    <g
       transform="translate(0,-98.18121)"
       id="text4245"
       style="font-style:normal;font-weight:normal;font-size:1500px;line-height:125%;font-family:sans-serif;text-align:center;letter-spacing:0px;word-spacing:0px;text-anchor:middle;fill:#aad400;fill-opacity:1;stroke:none;stroke-width:1px;stroke-linecap:butt;stroke-linejoin:miter;stroke-opacity:1">
      <path
         id="path4285"
         style="font-style:normal;font-variant:normal;font-weight:normal;font-stretch:normal;font-size:625px;font-family:Andika;-inkscape-font-specification:Andika;text-align:start;text-anchor:start;fill:#aad400"
         d="m 485.52492,-2440.6213 0,48.8281 -177.00196,0 0,73.2422 q 0,45.4712 0.61036,80.2612 0.61035,34.4849 3.96728,52.4902 l -67.13867,0 q 3.35693,-18.3105 3.96728,-52.7954 0.61036,-34.79 0.61036,-79.956 l 0,-221.2525 q 0,-20.4467 -0.61036,-37.5366 -0.30517,-17.395 -1.2207,-31.1279 -0.91553,-13.7329 -2.74658,-22.8882 l 265.50293,0 0,50.354 -202.9419,0 0,140.3809 177.00196,0 z"
         inkscape:connector-curvature="0" />
      <path
         id="path4287"
         style="font-style:normal;font-variant:normal;font-weight:normal;font-stretch:normal;font-size:625px;font-family:Andika;-inkscape-font-specification:Andika;text-align:start;text-anchor:start;fill:#aad400"
         d="m 663.13722,-2330.7581 q 0,14.6485 0.30518,34.4849 0.61035,19.8364 1.2207,40.2832 0.91553,20.4468 1.83106,39.0625 1.2207,18.6157 2.74658,31.1279 l -62.56104,0 0,-344.8486 q 0,-44.5557 -1.52588,-80.5664 -1.52588,-36.3159 -4.57763,-62.8662 l 62.56103,0 0,343.3227 z"
         inkscape:connector-curvature="0" />
      <path
         id="path4289"
         style="font-style:normal;font-variant:normal;font-weight:normal;font-stretch:normal;font-size:625px;font-family:Andika;-inkscape-font-specification:Andika;text-align:start;text-anchor:start;fill:#aad400"
         d="m 806.26466,-2333.8098 q 0.91553,26.8555 8.23975,46.6919 7.62939,19.8364 20.44678,32.959 13.12256,12.8173 30.51758,19.226 17.70019,6.4087 38.45214,6.4087 29.60205,0 57.9834,-6.7138 28.38135,-6.7139 56.45749,-23.8037 l 6.1035,50.354 q -16.1743,8.2397 -31.73823,14.038 -15.56397,5.7984 -31.12793,9.4605 -15.56397,3.6621 -31.73828,5.188 -15.86915,1.831 -33.56934,1.831 -29.29688,0 -55.84717,-10.0708 -26.55029,-10.3759 -46.69189,-30.2124 -20.1416,-20.1416 -32.04346,-49.7436 -11.90186,-29.6021 -11.90186,-68.6646 0,-37.8418 10.0708,-68.3593 10.37598,-30.8228 29.29688,-52.4903 18.9209,-21.9726 46.08154,-33.5693 27.16065,-11.9019 61.03516,-11.9019 25.02441,0 44.25049,6.1035 19.22607,5.7984 33.26416,16.4795 14.03808,10.376 23.49853,24.4141 9.4605,14.0381 14.9536,30.2124 5.7984,16.1743 8.2398,33.8745 2.4414,17.395 2.4414,34.4849 l 0,11.9018 q 0,7.6294 -0.3052,11.9019 l -216.36964,0 z m 85.44922,-123.5962 q -33.56933,0 -54.93164,19.8364 -21.3623,19.5313 -28.07617,61.0352 l 159.30176,0 q 0,-19.5313 -5.79834,-34.4849 -5.49317,-15.2588 -15.86914,-25.6348 -10.0708,-10.3759 -24.10889,-15.5639 -14.03809,-5.188 -30.51758,-5.188 z"
         inkscape:connector-curvature="0" />
      <path
         id="path4291"
         style="font-style:normal;font-variant:normal;font-weight:normal;font-stretch:normal;font-size:625px;font-family:Andika;-inkscape-font-specification:Andika;text-align:start;text-anchor:start;fill:#aad400"
         d="m 1218.8623,-2300.5457 -79.6509,114.7461 -68.6645,0 q 12.5122,-16.4795 21.0571,-27.4658 8.5449,-11.2915 14.9536,-20.1416 6.7139,-8.8501 12.2071,-16.7847 5.7983,-7.9345 12.8173,-18.0053 l 54.3213,-78.7354 -48.2177,-67.749 q -7.6294,-10.6811 -14.0381,-19.2261 -6.4087,-8.5449 -13.4278,-17.395 -7.019,-8.8501 -15.8691,-19.5312 -8.5449,-10.9864 -20.752,-26.2452 l 70.1905,0 79.3457,110.1685 74.768,-110.1685 68.6646,0 q -11.9019,15.2588 -20.1416,26.2452 -8.2397,10.6811 -14.9536,19.8364 -6.7139,8.8501 -12.8174,17.395 -5.7983,8.5449 -13.1226,18.9209 l -49.7436,73.2422 52.7954,73.2422 q 8.2397,11.5967 14.3433,19.8364 6.1035,7.9346 12.8173,16.4795 6.7139,8.5449 14.6485,19.2261 8.2397,10.6811 20.7519,26.8554 l -70.1904,0 -82.0923,-114.7461 z"
         inkscape:connector-curvature="0" />
      <path
         id="path4293"
         style="font-style:normal;font-variant:normal;font-weight:normal;font-stretch:normal;font-size:625px;font-family:Andika;-inkscape-font-specification:Andika;text-align:start;text-anchor:start;fill:#aad400"
         d="m 1637.8687,-2448.2507 q -7.6294,-1.5259 -22.2779,-3.6621 -14.3432,-2.4414 -37.2314,-2.4414 -29.9072,0 -50.0488,12.207 -19.8365,11.9018 -31.7383,32.0434 -11.9019,19.8365 -17.0899,45.7764 -4.8828,25.9399 -4.8828,53.4058 0,17.7002 3.357,32.6538 3.6621,14.6484 9.7656,25.6347 6.1035,10.6812 14.0381,16.7847 7.9345,5.7984 17.0898,5.7984 10.0708,0 20.4468,-6.7139 10.6811,-6.7139 20.7519,-18.0054 10.376,-11.5967 20.1416,-26.5503 9.7657,-14.9536 18.3106,-31.4331 8.5449,-16.7847 15.8691,-33.8745 7.3243,-17.0898 12.5122,-32.3486 5.188,-15.564 7.9346,-28.3814 3.0518,-12.8174 3.0518,-21.0571 l 0,-19.8364 z m 22.8882,262.4511 q -3.357,-7.3242 -6.1036,-21.9726 -2.4414,-14.6485 -4.2724,-31.4331 -1.5259,-17.0899 -2.4414,-33.2642 -0.9156,-16.1743 -0.9156,-26.2451 l 0,-30.5176 q -9.7656,25.94 -23.4985,52.7954 -13.4277,26.8555 -30.8227,48.8282 -17.3951,21.6674 -38.4522,35.7055 -20.7519,13.7329 -44.5557,13.7329 -19.226,0 -36.0107,-8.5449 -16.7847,-8.5449 -29.2969,-25.3296 -12.207,-16.7846 -19.2261,-41.5039 -7.019,-25.0244 -7.019,-57.373 0,-36.3159 9.7656,-70.8008 9.7657,-34.7901 29.9073,-61.6455 20.1416,-27.1607 51.2695,-43.335 31.1279,-16.4795 73.8525,-16.4795 29.6021,0 58.899,3.9673 29.2968,3.6621 52.4902,9.7656 l 0,141.9068 q 0,57.6782 5.4932,97.0459 5.4931,39.0625 14.3432,64.6972 l -53.4057,0 z"
         inkscape:connector-curvature="0" />
      <path
         id="path4295"
         style="font-style:normal;font-variant:normal;font-weight:normal;font-stretch:normal;font-size:625px;font-family:Andika;-inkscape-font-specification:Andika;text-align:start;text-anchor:start;fill:#aad400"
         d="m 1982.1069,-2439.0955 q -7.3242,-2.7465 -15.5639,-4.8828 -8.2398,-2.4414 -16.7847,-3.9673 -8.5449,-1.5258 -16.7847,-2.4414 -7.9345,-0.9155 -14.9536,-0.9155 -25.0244,0 -42.7246,10.376 -17.7002,10.0708 -28.9917,26.8555 -10.9863,16.4794 -16.1743,37.5366 -5.188,21.0571 -5.188,42.7246 0,28.3813 4.2725,47.3022 4.5776,18.6158 12.207,29.9073 7.9346,10.9863 18.3106,15.8691 10.6811,4.5776 23.1933,4.5776 11.5967,0 24.7193,-4.5776 13.1225,-4.8828 26.2451,-13.7329 13.4277,-8.8501 25.6347,-21.9727 12.5122,-13.1225 22.583,-29.9072 l 0,-132.7515 z m 56.4576,245.6665 q 0,40.2832 -11.9019,68.9698 -11.5967,28.6865 -30.8227,46.6919 -18.9209,18.3105 -43.335,26.8554 -24.4141,8.545 -49.7437,8.545 -29.2968,0 -58.2885,-10.0708 -28.6866,-10.0708 -53.1006,-26.5503 l 19.8364,-47.3023 q 21.6675,15.564 43.6401,25.3296 21.9727,9.7656 44.8609,9.7656 11.9018,0 26.2451,-4.2724 14.3433,-4.2725 26.8555,-14.9536 12.5122,-10.376 20.7519,-28.0762 8.5449,-17.7002 8.5449,-44.2505 l 0,-56.4575 q -11.9018,14.9536 -25.3295,25.6347 -13.1226,10.376 -26.8555,17.0899 -13.4277,6.4087 -27.1607,9.4604 -13.4277,2.7466 -25.9399,2.7466 -21.0571,0 -40.5884,-7.3242 -19.5312,-7.3242 -34.79,-23.1934 -14.9536,-16.1743 -24.1089,-41.809 -8.8501,-25.6348 -8.8501,-61.9507 0,-35.0952 9.1553,-68.3594 9.1552,-33.2642 28.3813,-58.8989 19.2261,-25.94 49.1333,-41.5039 30.2124,-15.8692 72.0215,-15.8692 13.7329,0 28.0762,2.1363 14.6484,1.831 28.9917,5.1879 14.3432,3.357 28.0762,7.6294 13.7329,3.9673 26.2451,7.9346 l 0,286.8652 z"
         inkscape:connector-curvature="0" />
      <path
         id="path4297"
         style="font-style:normal;font-variant:normal;font-weight:normal;font-stretch:normal;font-size:625px;font-family:Andika;-inkscape-font-specification:Andika;text-align:start;text-anchor:start;fill:#aad400"
         d="m 2164.9072,-2339.9133 q 0,26.5503 6.4087,47.6074 6.4087,21.0571 18.0054,35.7056 11.9019,14.3432 28.0762,21.9726 16.1743,7.6294 36.0107,7.6294 18.3106,0 34.4849,-7.6294 16.1743,-7.6294 28.0762,-21.9726 12.207,-14.6485 18.9209,-35.7056 7.019,-21.0571 7.019,-47.6074 0,-26.8555 -6.4087,-47.9126 -6.4087,-21.3623 -18.3105,-36.0108 -11.5967,-14.9536 -28.0762,-22.583 -16.1743,-7.9345 -35.7056,-7.9345 -18.6157,0 -34.79,7.9345 -16.1743,7.6294 -28.0762,22.583 -11.9018,14.6485 -18.9209,36.0108 -6.7139,21.0571 -6.7139,47.9126 z m -56.4575,0 q 0,-39.3677 11.9019,-69.5801 11.9018,-30.5176 32.0434,-51.2695 20.1416,-21.0572 46.9971,-31.7383 26.8555,-10.6812 57.0679,-10.6812 31.4331,0 57.373,10.6812 26.2451,10.6811 44.8609,31.7383 18.9209,20.7519 29.2968,51.2695 10.376,30.2124 10.376,69.5801 0,39.3676 -11.9018,69.58 -11.9019,30.2125 -32.0435,50.6592 -20.1416,20.4468 -46.9971,31.128 -26.8554,10.3759 -57.0678,10.3759 -31.4331,0 -57.6783,-10.3759 -25.9399,-10.6812 -44.8608,-31.128 -18.6157,-20.4467 -28.9917,-50.6592 -10.376,-30.2124 -10.376,-69.58 z"
         inkscape:connector-curvature="0" />
      <path
         id="path4299"
         style="font-style:normal;font-variant:normal;font-weight:normal;font-stretch:normal;font-size:625px;font-family:Andika;-inkscape-font-specification:Andika;text-align:start;text-anchor:start;fill:#aad400"
         d="m 2691.3355,-2185.7996 0,-167.8466 q 0,-28.6866 -3.9673,-47.3023 -3.6621,-18.6157 -11.2915,-29.2969 -7.3242,-10.9863 -18.9209,-15.2588 -11.2915,-4.2724 -26.8555,-4.2724 -16.4795,0 -32.3486,7.9346 -15.564,7.6294 -28.6865,20.1416 -13.1226,12.207 -23.1934,27.771 -10.0708,15.5639 -14.9536,31.1279 l 0,177.0019 -56.4575,0 0,-187.6831 q 0,-45.166 -5.188,-76.2939 -4.8828,-31.4331 -10.0708,-47.3023 l 54.9316,0 q 1.8311,4.8829 3.6621,12.8174 1.8311,7.6294 3.357,16.1743 1.5258,8.545 2.7465,16.7847 l 2.4414,13.7329 q 28.9917,-34.79 58.5938,-50.0488 29.602,-15.564 61.9507,-15.564 48.8281,0 74.768,32.0435 25.94,31.7383 25.94,94.6045 l 0,190.7348 -56.4575,0 z"
         inkscape:connector-curvature="0" />
      <path
         id="path4301"
         style="font-style:normal;font-variant:normal;font-weight:normal;font-stretch:normal;font-size:625px;font-family:Andika;-inkscape-font-specification:Andika;text-align:start;text-anchor:start;fill:#aad400"
         d="m 2874.1358,-2333.8098 q 0.9155,26.8555 8.2397,46.6919 7.6294,19.8364 20.4468,32.959 13.1225,12.8173 30.5176,19.226 17.7002,6.4087 38.4521,6.4087 29.6021,0 57.9834,-6.7138 28.3814,-6.7139 56.4575,-23.8037 l 6.1035,50.354 q -16.1743,8.2397 -31.7382,14.038 -15.564,5.7984 -31.128,9.4605 -15.5639,3.6621 -31.7383,5.188 -15.8691,1.831 -33.5693,1.831 -29.2969,0 -55.8472,-10.0708 -26.5502,-10.3759 -46.6918,-30.2124 -20.1417,-20.1416 -32.0435,-49.7436 -11.9019,-29.6021 -11.9019,-68.6646 0,-37.8418 10.0708,-68.3593 10.376,-30.8228 29.2969,-52.4903 18.9209,-21.9726 46.0816,-33.5693 27.1606,-11.9019 61.0351,-11.9019 25.0244,0 44.2505,6.1035 19.2261,5.7984 33.2642,16.4795 14.038,10.376 23.4985,24.4141 9.4604,14.0381 14.9536,30.2124 5.7983,16.1743 8.2398,33.8745 2.4414,17.395 2.4414,34.4849 l 0,11.9018 q 0,7.6294 -0.3052,11.9019 l -216.3696,0 z m 85.4492,-123.5962 q -33.5694,0 -54.9317,19.8364 -21.3623,19.5313 -28.0761,61.0352 l 159.3017,0 q 0,-19.5313 -5.7983,-34.4849 -5.4932,-15.2588 -15.8692,-25.6348 -10.0708,-10.3759 -24.1088,-15.5639 -14.0381,-5.188 -30.5176,-5.188 z"
         inkscape:connector-curvature="0" />
      <path
         id="path4303"
         style="font-style:normal;font-variant:normal;font-weight:normal;font-stretch:normal;font-size:625px;font-family:Andika;-inkscape-font-specification:Andika;text-align:start;text-anchor:start;fill:#aad400"
         d="m 3375.5396,-2185.7996 q 12.5122,-43.0297 25.3296,-80.8715 12.8173,-38.147 26.2451,-72.3267 13.7329,-34.1797 28.3813,-65.3076 14.6485,-31.1279 30.5176,-60.73 16.1743,-29.6021 33.8745,-57.9834 17.7002,-28.6865 37.2315,-57.9834 l -119.0186,0 q -43.0298,0 -70.8008,1.2207 -27.771,1.2207 -45.166,4.8828 l 0,-56.4575 302.124,0 0,48.8281 q -67.749,92.7735 -115.3564,192.2608 -47.3023,99.4873 -76.9043,204.4677 l -56.4575,0 z"
         inkscape:connector-curvature="0" />
      <path
         id="path4305"
         style="font-style:normal;font-variant:normal;font-weight:normal;font-stretch:normal;font-size:625px;font-family:Andika;-inkscape-font-specification:Andika;text-align:start;text-anchor:start;fill:#aad400"
         d="m 3987.417,-2185.7996 -292.9687,0 0,-51.8798 q 20.7519,-14.9537 44.2504,-34.4849 23.8038,-19.8364 46.9971,-42.4194 23.4986,-22.583 44.8609,-46.9971 21.6674,-24.7192 38.1469,-49.4385 16.4795,-24.7192 26.2451,-48.5229 10.0708,-24.1089 10.0708,-45.1661 0,-21.3623 -7.6293,-36.3159 -7.3243,-15.2588 -19.5313,-24.7192 -12.207,-9.7656 -27.771,-14.0381 -15.564,-4.2725 -32.0435,-4.2725 -14.038,0 -28.9917,4.2725 -14.9536,3.9673 -29.2968,11.5967 -14.0381,7.6294 -27.1607,18.0054 -12.8174,10.3759 -22.8882,22.583 l -13.7329,-51.8799 q 9.1553,-12.8174 23.8037,-23.4986 14.6485,-10.9863 32.3487,-18.9209 18.0054,-8.2397 37.5366,-12.5122 19.8364,-4.5776 39.0625,-4.5776 27.4658,0 52.1851,9.1553 25.0244,8.8501 43.9453,25.6347 18.9209,16.4795 29.9072,40.2832 11.2915,23.4986 11.2915,53.1006 0,25.6348 -9.4604,52.1851 -9.1553,26.2451 -24.7193,52.185 -15.5639,25.6348 -35.4004,50.0489 -19.8364,24.414 -40.8935,46.3867 -21.0572,21.9727 -41.5039,40.8936 -20.4468,18.6157 -37.2315,32.9589 l 77.8198,0 q 22.5831,0 42.7247,0 20.1416,-0.3051 36.9262,-0.6103 17.0899,-0.6104 30.5176,-1.5259 13.4277,-0.9155 22.583,-2.4414 l 0,54.9316 z"
         inkscape:connector-curvature="0" />
    </g>
    <g
       transform="translate(0,-98.18121)"
       id="text4668"
       style="font-style:normal;font-variant:normal;font-weight:normal;font-stretch:normal;font-size:312.5px;line-height:125%;font-family:Andika;-inkscape-font-specification:Andika;text-align:center;letter-spacing:0px;word-spacing:0px;text-anchor:middle;fill:#677821;fill-opacity:1;stroke:none;stroke-width:1px;stroke-linecap:butt;stroke-linejoin:miter;stroke-opacity:1">
      <path
         id="path4673"
         d="m 2395.345,-1966.4628 q 0,22.7356 0.3051,40.1306 0.3052,17.2425 1.9837,26.2452 l -33.5693,0 q 1.6784,-9.1553 1.9836,-26.3977 0.3052,-17.3951 0.3052,-39.9781 l 0,-108.0322 q 0,-10.6811 -0.3052,-19.8364 -0.1526,-9.3079 -0.6104,-16.6321 -0.4577,-7.3242 -1.3732,-11.9019 9.613,-0.3051 20.2941,-0.7629 9.1553,-0.3052 20.5994,-0.4578 11.5967,-0.3051 23.9563,-0.3051 18.4631,0 33.4168,4.2724 14.9536,4.1199 25.4821,12.6648 10.5286,8.3924 16.1743,21.0571 5.7984,12.5123 5.7984,29.1443 0,16.7847 -5.6458,30.2124 -5.4931,13.4278 -16.0217,22.8882 -10.376,9.3079 -25.4822,14.3433 -14.9536,5.0354 -33.7219,5.0354 -8.3923,0 -17.2424,-0.3052 -8.8501,-0.4578 -16.3269,-1.2207 l 0,19.8364 z m 0,-43.4875 q 7.3242,0.9155 14.9536,1.2207 7.6294,0.3052 16.3269,0.3052 16.0217,0 26.3977,-3.6621 10.5286,-3.6622 16.6321,-9.9183 6.2561,-6.4087 8.6975,-14.6484 2.4414,-8.3923 2.4414,-17.5476 0,-9.1553 -2.7466,-17.395 -2.594,-8.3924 -8.8501,-14.6485 -6.1035,-6.2561 -16.3269,-9.9182 -10.2234,-3.8147 -25.4822,-3.8147 -5.3405,0 -9.613,0.1526 -4.2725,0 -7.9346,0.1526 -3.6621,0 -7.1716,0.1526 -3.5095,0.1526 -7.3242,0.3052 l 0,89.2639 z"
         inkscape:connector-curvature="0" />
      <path
         id="path4675"
         d="m 2626.6682,-2093.1107 -38.4521,110.6262 77.362,0 -38.9099,-110.6262 z m -98.4192,193.0237 q 1.9837,-4.5777 4.1199,-9.6131 2.1362,-5.0354 4.5776,-11.2915 2.594,-6.4087 5.6458,-14.4958 3.0517,-8.0872 7.019,-18.7683 l 61.0352,-168.6097 32.8064,0 61.0351,168.6097 q 3.8147,10.6811 6.8665,18.7683 3.0518,8.0871 5.6457,14.4958 2.594,6.2561 4.7303,11.2915 2.1362,5.0354 4.1198,9.6131 l -31.2805,0 -20.7519,-58.7464 -93.8416,0 -20.4468,58.7464 -31.2805,0 z"
         inkscape:connector-curvature="0" />
      <path
         id="path4677"
         d="m 2918.2637,-2122.8654 0,28.2288 q -9.1553,-1.9836 -18.158,-2.4414 -8.8501,-0.6104 -19.2261,-0.6104 l -36.6211,0 0,131.2256 q 0,22.583 0.4578,39.9781 0.6104,17.2424 2.594,26.3977 l -35.0952,0 q 1.9836,-9.1553 2.4414,-26.3977 0.6103,-17.3951 0.6103,-39.9781 l 0,-131.2256 -35.8581,0 q -10.2234,0 -19.2261,0.6104 -9.0027,0.4578 -18.1579,2.4414 l 0,-28.2288 176.239,0 z"
         inkscape:connector-curvature="0" />
      <path
         id="path4679"
         d="m 2983.7239,-1966.4628 q 0,11.2915 0,21.3623 0.1526,10.0708 0.3052,18.6158 0.3051,8.5449 0.7629,15.2587 0.4578,6.7139 1.2207,11.139 l -33.5693,0 q 1.6784,-9.1553 1.9836,-26.3977 0.3052,-17.3951 0.3052,-39.9781 l 0,-108.0322 q 0,-10.6811 -0.3052,-19.8364 -0.1526,-9.3079 -0.6103,-16.6321 -0.4578,-7.3242 -1.3733,-11.9019 7.9345,-0.3051 17.5476,-0.7629 8.2397,-0.3052 19.5312,-0.4578 11.2915,-0.3051 24.7193,-0.3051 17.8527,0 32.5012,3.6621 14.801,3.5095 25.3296,11.1389 10.5285,7.4768 16.3269,19.3787 5.9509,11.9018 5.9509,28.3813 0,13.8855 -4.4251,24.5667 -4.2724,10.6811 -11.444,18.4631 -7.0191,7.6294 -16.0218,12.6648 -9.0027,5.0354 -18.3105,7.6294 4.5776,6.2561 11.1389,15.4114 6.7139,9.0026 14.1907,19.226 7.6294,10.0708 15.2588,20.5994 7.7819,10.376 14.4958,19.2261 6.7139,8.8501 11.7493,15.2588 5.0354,6.4086 7.019,8.6975 l -38.9099,0 -64.3921,-95.3675 -30.9753,0 0,28.9917 z m 0,-52.6428 28.9917,0 q 25.9399,0 39.2151,-10.6811 13.4277,-10.6812 13.4277,-29.7547 0,-9.7656 -3.0518,-17.2424 -2.8991,-7.6294 -9.3078,-12.6648 -6.2561,-5.188 -16.3269,-7.782 -9.9182,-2.7466 -23.9563,-2.7466 -8.0872,0 -15.564,0.3052 -7.3242,0.1526 -13.4277,0.4578 l 0,80.1086 z"
         inkscape:connector-curvature="0" />
      <path
         id="path4681"
         d="m 3332.082,-2013.0021 q 0,27.4658 -8.2397,49.1333 -8.0872,21.6675 -21.6675,36.7737 -13.4277,14.9536 -30.6702,22.8882 -17.2424,7.9346 -35.5529,7.9346 -18.4632,0 -35.4004,-7.4768 -16.9373,-7.4769 -29.9073,-21.9727 -12.9699,-14.4959 -20.7519,-35.553 -7.782,-21.2097 -7.782,-48.6755 0,-18.3106 3.6621,-34.0271 3.8147,-15.7166 10.376,-28.6865 6.7139,-12.97 15.8691,-23.0408 9.1553,-10.0708 19.8365,-16.9373 10.8337,-6.8664 22.7356,-10.3759 12.0544,-3.6622 24.414,-3.6622 18.158,0 34.9426,7.4769 16.9373,7.4768 29.7547,21.9726 12.97,14.4959 20.5993,35.7056 7.782,21.0571 7.782,48.5229 z m -29.7546,3.8147 q 0,-21.0571 -4.7302,-37.8418 -4.5777,-16.9372 -13.1226,-28.6865 -8.5449,-11.7493 -20.5994,-18.0054 -11.9018,-6.2561 -26.3977,-6.2561 -14.4958,0 -26.5503,6.1035 -12.0544,5.951 -20.7519,17.2425 -8.6975,11.1389 -13.5803,27.1606 -4.7303,15.8692 -4.7303,35.7056 0,20.9045 4.5777,37.6892 4.7302,16.7847 13.2751,28.6865 8.6975,11.7493 20.752,18.158 12.0544,6.2561 27.008,6.2561 14.0381,0 25.94,-5.7984 11.9018,-5.9509 20.4468,-16.9372 8.6975,-11.1389 13.5803,-27.1607 4.8828,-16.0217 4.8828,-36.3159 z"
         inkscape:connector-curvature="0" />
      <path
         id="path4683"
         d="m 3402.2725,-2075.8683 0,175.7813 -27.4659,0 q 1.6785,-9.1553 1.9837,-26.3977 0.3052,-17.3951 0.3052,-39.9781 l 0,-90.0268 q 0,-22.583 -0.3052,-39.8255 -0.3052,-17.395 -1.9837,-26.5503 l 27.4659,0 121.3073,176.5442 0,-176.5442 27.4659,0 q -0.763,4.5777 -1.2207,11.2915 -0.4578,6.7139 -0.763,15.2588 -0.1526,8.3924 -0.3052,18.4632 0,10.0708 0,21.3623 l 0,156.4026 -25.177,0 -121.3073,-175.7813 z"
         inkscape:connector-curvature="0" />
    </g>
  </g>
</svg>
